<?xml version="1.0" encoding="UTF-8" standalone="no"?>
<!-- Created with Inkscape (http://www.inkscape.org/) -->

<svg
   version="1.1"
   id="svg113"
   width="884.29095"
   height="302.80469"
   viewBox="0 0 884.29095 302.80469"
   sodipodi:docname="deadlock.pdf"
   xmlns:inkscape="http://www.inkscape.org/namespaces/inkscape"
   xmlns:sodipodi="http://sodipodi.sourceforge.net/DTD/sodipodi-0.dtd"
   xmlns="http://www.w3.org/2000/svg"
   xmlns:svg="http://www.w3.org/2000/svg">
  <defs
     id="defs117" />
  <sodipodi:namedview
     id="namedview115"
     pagecolor="#ffffff"
     bordercolor="#666666"
     borderopacity="1.0"
     inkscape:showpageshadow="2"
     inkscape:pageopacity="0.0"
     inkscape:pagecheckerboard="0"
     inkscape:deskcolor="#d1d1d1" />
  <g
     id="g119"
     inkscape:groupmode="layer"
     inkscape:label="deadlock2"
     transform="matrix(1.3333333,0,0,1.3333333,0,9.5701172e-6)">
    <g
       id="g121">
      <g
         id="g123">
        <path
           d="m 105.691,163.359 c 525,0 525,0 525,0"
           style="fill:none;stroke:#000000;stroke-width:1.5;stroke-linecap:butt;stroke-linejoin:miter;stroke-miterlimit:4;stroke-dasharray:none;stroke-opacity:1"
           id="path125" />
      </g>
      <g
         id="g127"
         transform="scale(-1)">
        <path
           d="m -615.691,-163.359 6,-6 -21,6 21,6 z"
           style="fill:#000000;fill-opacity:1;fill-rule:evenodd;stroke:#000000;stroke-width:1.6;stroke-linecap:butt;stroke-linejoin:miter;stroke-miterlimit:4;stroke-dasharray:none;stroke-opacity:1"
           id="path129" />
      </g>
      <text
         xml:space="preserve"
         transform="translate(-1.634766,56.290409)"
         style="font-variant:normal;font-weight:normal;font-size:18px;font-family:'DejaVu Sans';-inkscape-font-specification:DejaVuSans;writing-mode:lr-tb;fill:#000000;fill-opacity:1;fill-rule:nonzero;stroke:none"
         id="text135"><tspan
           x="0 7.02 18.09 27.972"
           y="0"
           sodipodi:role="line"
           id="tspan131">recv</tspan><tspan
           x="2.32758 11.68758 22.75758 34.151581"
           y="107.06897"
           sodipodi:role="line"
           id="tspan133">send</tspan></text>
      <g
         id="g137">
        <path
           d="m 105.691,58.359 c 525,0 525,0 525,0"
           style="fill:none;stroke:#000000;stroke-width:1.5;stroke-linecap:butt;stroke-linejoin:miter;stroke-miterlimit:4;stroke-dasharray:none;stroke-opacity:1"
           id="path139" />
      </g>
      <g
         id="g141"
         transform="scale(-1)">
        <path
           d="m -615.691,-58.359 6,-6 -21,6 21,6 z"
           style="fill:#000000;fill-opacity:1;fill-rule:evenodd;stroke:#000000;stroke-width:1.6;stroke-linecap:butt;stroke-linejoin:miter;stroke-miterlimit:4;stroke-dasharray:none;stroke-opacity:1"
           id="path143" />
      </g>
      <text
         xml:space="preserve"
         transform="translate(165.69282,193.35937)"
         style="font-variant:normal;font-weight:normal;font-size:18px;font-family:'DejaVu Sans';-inkscape-font-specification:DejaVuSans;writing-mode:lr-tb;fill:#000000;fill-opacity:1;fill-rule:nonzero;stroke:none"
         id="text171"><tspan
           x="0 11.448 22.896 89.982002 101.43 112.878"
           y="0"
           sodipodi:role="line"
           id="tspan145">206207</tspan><tspan
           x="165 176.44801 187.89601"
           y="-180"
           sodipodi:role="line"
           id="tspan147">216</tspan><tspan
           x="450 460.422 465.40799 482.94"
           y="-104.99999"
           sodipodi:role="line"
           id="tspan149">Time</tspan><tspan
           x="165 174.36 179.34601 190.416 201.48601"
           y="-149.99998"
           sodipodi:role="line"
           id="tspan151">sleep</tspan><tspan
           x="90 104.706 115.722 125.55 136.62 148.01401"
           y="30.000006"
           sodipodi:role="line"
           id="tspan153">wakeup</tspan><tspan
           x="240 254.70599 265.72198 270.70801 277.76401 283.47 289.806 300.80399 313.96201 328.668 339.68399 349.51199 360.582 371.97598 383.388 389.09399 395.42999 406.42801 413.466 424.53598 435.17398 446.24399"
           y="-164.99998"
           sodipodi:role="line"
           id="tspan155">wait forwakeup forever</tspan><tspan
           x="-60.000011 -48.552013 -37.104012"
           y="-179.99998"
           sodipodi:role="line"
           id="tspan157">215</tspan><tspan
           x="-60.000011 -52.944012 -41.874012 -32.514011"
           y="-149.99998"
           sodipodi:role="line"
           id="tspan159">test</tspan><tspan
           x="-1.8000001e-05 9.3599815 16.415981 27.413982 34.451981 45.52198 51.227982"
           y="30.000025"
           sodipodi:role="line"
           id="tspan161">store p</tspan><tspan
           x="300 311.448 322.896"
           y="1.8000001e-05"
           sodipodi:role="line"
           id="tspan163">204</tspan><tspan
           x="300 307.056 318.12598 327.48599"
           y="30.000025"
           sodipodi:role="line"
           id="tspan165">test</tspan><tspan
           x="390 401.448 412.896"
           y="1.8000001e-05"
           sodipodi:role="line"
           id="tspan167">205</tspan><tspan
           x="390 399.35999 410.772 415.758 427.15198 432.858 439.194 450.19199 457.22998 468.29999 478.93799 490.008"
           y="30.000025"
           sodipodi:role="line"
           id="tspan169">spin forever</tspan></text>
    </g>
  </g>
</svg>
