<?xml version="1.0" encoding="UTF-8" standalone="no"?>
<!-- Created with Inkscape (http://www.inkscape.org/) -->

<svg
   version="1.1"
   id="svg722"
   width="658.69922"
   height="213.58276"
   viewBox="0 0 658.69922 213.58276"
   sodipodi:docname="mkernel.pdf"
   xmlns:inkscape="http://www.inkscape.org/namespaces/inkscape"
   xmlns:sodipodi="http://sodipodi.sourceforge.net/DTD/sodipodi-0.dtd"
   xmlns="http://www.w3.org/2000/svg"
   xmlns:svg="http://www.w3.org/2000/svg">
  <defs
     id="defs726" />
  <sodipodi:namedview
     id="namedview724"
     pagecolor="#ffffff"
     bordercolor="#666666"
     borderopacity="1.0"
     inkscape:showpageshadow="2"
     inkscape:pageopacity="0.0"
     inkscape:pagecheckerboard="0"
     inkscape:deskcolor="#d1d1d1" />
  <g
     id="g728"
     inkscape:groupmode="layer"
     inkscape:label="mkernel6"
     transform="matrix(1.3333333,0,0,1.3333333,0,1.3395691e-6)">
    <g
       id="g730">
      <text
         xml:space="preserve"
         transform="translate(213.52441,130.71183)"
         style="font-variant:normal;font-weight:normal;font-size:18px;font-family:'DejaVu Sans';-inkscape-font-specification:DejaVuSans;writing-mode:lr-tb;fill:#000000;fill-opacity:1;fill-rule:nonzero;stroke:none"
         id="text734"><tspan
           x="0 15.516 20.502001 30.384001 37.422001 48.419998 58.23 69.300003 76.391998 87.786003 98.856003"
           y="0"
           sodipodi:role="line"
           id="tspan732">Microkernel</tspan></text>
      <g
         id="g736">
        <path
           d="m 89.023,105.211 h 345 v 30 h -345 z"
           style="fill:none;stroke:#000000;stroke-width:1.5;stroke-linecap:butt;stroke-linejoin:miter;stroke-miterlimit:4;stroke-dasharray:none;stroke-opacity:0.896552"
           id="path738" />
      </g>
      <g
         id="g740">
        <path
           d="m 217.648,33.164 c 0,16.566 -30.218,30 -67.5,30 -37.277,0 -67.5,-13.434 -67.5,-30 0,-16.57 30.223,-30 67.5,-30 37.282,0 67.5,13.43 67.5,30 z"
           style="fill:none;stroke:#000000;stroke-width:1.5;stroke-linecap:butt;stroke-linejoin:miter;stroke-miterlimit:4;stroke-dasharray:none;stroke-opacity:0.896552"
           id="path742" />
      </g>
      <text
         xml:space="preserve"
         transform="translate(126.72028,37.972778)"
         style="font-variant:normal;font-weight:normal;font-size:18px;font-family:'DejaVu Sans';-inkscape-font-specification:DejaVuSans;writing-mode:lr-tb;fill:#000000;fill-opacity:1;fill-rule:nonzero;stroke:none"
         id="text746"><tspan
           x="0 9.3599997 20.754 31.823999 36.810001"
           y="0"
           sodipodi:role="line"
           id="tspan744">shell</tspan></text>
      <g
         id="g748">
        <path
           d="m 451.176,30.75 c 0,16.57 -30.219,30 -67.5,30 -37.278,0 -67.5,-13.43 -67.5,-30 0,-16.57 30.222,-30 67.5,-30 37.281,0 67.5,13.43 67.5,30 z"
           style="fill:none;stroke:#000000;stroke-width:1.5;stroke-linecap:butt;stroke-linejoin:miter;stroke-miterlimit:4;stroke-dasharray:none;stroke-opacity:0.896552"
           id="path750" />
      </g>
      <text
         xml:space="preserve"
         transform="translate(337.43742,37.695557)"
         style="font-variant:normal;font-weight:normal;font-size:18px;font-family:'DejaVu Sans';-inkscape-font-specification:DejaVuSans;writing-mode:lr-tb;fill:#000000;fill-opacity:1;fill-rule:nonzero;stroke:none"
         id="text754"><tspan
           x="0 9.0719995 14.058 19.044001 30.114 35.82 45.18 56.25 63.647999 74.286003 85.356003"
           y="0"
           sodipodi:role="line"
           id="tspan752">File server</tspan></text>
      <g
         id="g756">
        <path
           d="m 14.023,79.711 c 480,0 480,0 480,0"
           style="fill:none;stroke:#f10000;stroke-width:2.85;stroke-linecap:butt;stroke-linejoin:miter;stroke-miterlimit:4;stroke-dasharray:none;stroke-opacity:1"
           id="path758" />
      </g>
      <g
         id="g760">
        <path
           d="m 59.023,63.211 c 0,-60 0,-60 0,-60"
           style="fill:none;stroke:#000000;stroke-width:1.275;stroke-linecap:butt;stroke-linejoin:miter;stroke-miterlimit:4;stroke-dasharray:none;stroke-opacity:1"
           id="path762" />
      </g>
      <g
         id="g764"
         transform="rotate(90)">
        <path
           d="m 15.961,-59.023 5.102,-5.102 -17.852,5.102 17.852,5.097 z"
           style="fill:#000000;fill-opacity:1;fill-rule:evenodd;stroke:#000000;stroke-width:1.36;stroke-linecap:butt;stroke-linejoin:miter;stroke-miterlimit:4;stroke-dasharray:none;stroke-opacity:1"
           id="path766" />
      </g>
      <g
         id="g768">
        <path
           d="m 59.023,97.711 c 0,60 0,60 0,60"
           style="fill:none;stroke:#000000;stroke-width:1.275;stroke-linecap:butt;stroke-linejoin:miter;stroke-miterlimit:4;stroke-dasharray:none;stroke-opacity:1"
           id="path770" />
      </g>
      <g
         id="g772"
         transform="rotate(-90)">
        <path
           d="m -144.961,59.023 5.098,-5.097 -17.848,5.097 17.848,5.102 z"
           style="fill:#000000;fill-opacity:1;fill-rule:evenodd;stroke:#000000;stroke-width:1.36;stroke-linecap:butt;stroke-linejoin:miter;stroke-miterlimit:4;stroke-dasharray:none;stroke-opacity:1"
           id="path774" />
      </g>
      <text
         xml:space="preserve"
         transform="translate(-0.975586,37.71183)"
         style="font-variant:normal;font-weight:normal;font-size:18px;font-family:'DejaVu Sans';-inkscape-font-specification:DejaVuSans;writing-mode:lr-tb;fill:#000000;fill-opacity:1;fill-rule:nonzero;stroke:none"
         id="text784"><tspan
           x="0 11.394 20.754 31.823999"
           y="0"
           sodipodi:role="line"
           id="tspan776">user</tspan><tspan
           x="0 9.3599997 20.771999 31.788 41.669998"
           y="22.5"
           sodipodi:role="line"
           id="tspan778">space</tspan><tspan
           x="0 9.8100004 20.879999 27.972 39.366001 50.436001"
           y="75.000008"
           sodipodi:role="line"
           id="tspan780">kernel</tspan><tspan
           x="0 9.3599997 20.771999 31.788 41.669998"
           y="97.500008"
           sodipodi:role="line"
           id="tspan782">space</tspan></text>
      <g
         id="g786">
        <path
           d="m 164.023,52.711 c 105,60 105,60 105,60 l 90,-60"
           style="fill:none;stroke:#000000;stroke-width:1.5;stroke-linecap:butt;stroke-linejoin:miter;stroke-miterlimit:4;stroke-dasharray:none;stroke-opacity:1"
           id="path788" />
      </g>
      <g
         id="g790"
         transform="matrix(-1,0.666667,-0.666667,-1,0,0)">
        <path
           d="m -211.746,-202.195 4.992,-4.993 -17.473,4.993 17.473,4.992 z"
           style="fill:#000000;fill-opacity:1;fill-rule:evenodd;stroke:#000000;stroke-width:1.33128;stroke-linecap:butt;stroke-linejoin:miter;stroke-miterlimit:4;stroke-dasharray:none;stroke-opacity:1"
           id="path792" />
      </g>
      <text
         xml:space="preserve"
         transform="translate(202.82854,69.863887)"
         style="font-variant:normal;font-weight:normal;font-size:16.5px;font-family:'DejaVu Sans';-inkscape-font-specification:DejaVuSans;writing-mode:lr-tb;fill:#000000;fill-opacity:1;fill-rule:nonzero;stroke:none"
         id="text796"><tspan
           x="0 10.461 20.6085 31.052999 41.514 46.744499 62.815498 72.962997 81.542999 90.172501 100.2705 110.7315"
           y="0"
           sodipodi:role="line"
           id="tspan794">Send message</tspan></text>
    </g>
  </g>
</svg>
