<?xml version="1.0" encoding="UTF-8" standalone="no"?>
<!-- Created with Inkscape (http://www.inkscape.org/) -->

<svg
   version="1.1"
   id="svg836"
   width="658.69922"
   height="198.40585"
   viewBox="0 0 658.69922 198.40585"
   sodipodi:docname="os.pdf"
   xmlns:inkscape="http://www.inkscape.org/namespaces/inkscape"
   xmlns:sodipodi="http://sodipodi.sourceforge.net/DTD/sodipodi-0.dtd"
   xmlns="http://www.w3.org/2000/svg"
   xmlns:svg="http://www.w3.org/2000/svg">
  <defs
     id="defs840" />
  <sodipodi:namedview
     id="namedview838"
     pagecolor="#ffffff"
     bordercolor="#666666"
     borderopacity="1.0"
     inkscape:showpageshadow="2"
     inkscape:pageopacity="0.0"
     inkscape:pagecheckerboard="0"
     inkscape:deskcolor="#d1d1d1" />
  <g
     id="g842"
     inkscape:groupmode="layer"
     inkscape:label="os7"
     transform="scale(1.3333333)">
    <g
       id="g844">
      <g
         id="g846">
        <path
           d="m 89.023,86.328 h 345 v 60 h -345 z"
           style="fill:none;stroke:#000000;stroke-width:1.5;stroke-linecap:butt;stroke-linejoin:miter;stroke-miterlimit:4;stroke-dasharray:none;stroke-opacity:0.896552"
           id="path848" />
      </g>
      <text
         xml:space="preserve"
         transform="translate(265.78516,121.40818)"
         style="font-variant:normal;font-weight:normal;font-size:18px;font-family:'DejaVu Sans';-inkscape-font-specification:DejaVuSans;writing-mode:lr-tb;fill:#000000;fill-opacity:1;fill-rule:nonzero;stroke:none"
         id="text852"><tspan
           x="0 10.89 21.959999 29.052 40.445999 51.515999"
           y="0"
           sodipodi:role="line"
           id="tspan850">Kernel</tspan></text>
      <g
         id="g854">
        <path
           d="m 89.023,86.328 h 345 v 60 h -345 z"
           style="fill:none;stroke:#000000;stroke-width:1.5;stroke-linecap:butt;stroke-linejoin:miter;stroke-miterlimit:4;stroke-dasharray:none;stroke-opacity:0.896552"
           id="path856" />
      </g>
      <g
         id="g858"
         transform="scale(0.818182,1)">
        <path
           d="m 282.973,30.828 c 0,16.57 -36.934,30 -82.5,30 -45.561,0 -82.5,-13.43 -82.5,-30 0,-16.566 36.939,-30 82.5,-30 45.566,0 82.5,13.434 82.5,30 z"
           style="fill:none;stroke:#000000;stroke-width:1.65831;stroke-linecap:butt;stroke-linejoin:miter;stroke-miterlimit:4;stroke-dasharray:none;stroke-opacity:0.896552"
           id="path860" />
      </g>
      <text
         xml:space="preserve"
         transform="translate(146.02441,39.829157)"
         style="font-variant:normal;font-weight:normal;font-size:18px;font-family:'DejaVu Sans';-inkscape-font-specification:DejaVuSans;writing-mode:lr-tb;fill:#000000;fill-opacity:1;fill-rule:nonzero;stroke:none"
         id="text864"><tspan
           x="0 9.3599997 20.754 31.823999 36.810001"
           y="0"
           sodipodi:role="line"
           id="tspan862">shell</tspan></text>
      <g
         id="g866"
         transform="scale(0.818182,1)">
        <path
           d="m 539.64,30.828 c 0,16.57 -36.934,30 -82.5,30 -45.561,0 -82.5,-13.43 -82.5,-30 0,-16.566 36.939,-30 82.5,-30 45.566,0 82.5,13.434 82.5,30 z"
           style="fill:none;stroke:#000000;stroke-width:1.65831;stroke-linecap:butt;stroke-linejoin:miter;stroke-miterlimit:4;stroke-dasharray:none;stroke-opacity:0.896552"
           id="path868" />
      </g>
      <text
         xml:space="preserve"
         transform="translate(359.02441,36.829157)"
         style="font-variant:normal;font-weight:normal;font-size:18px;font-family:'DejaVu Sans';-inkscape-font-specification:DejaVuSans;writing-mode:lr-tb;fill:#000000;fill-opacity:1;fill-rule:nonzero;stroke:none"
         id="text872"><tspan
           x="0 9.882 20.898001"
           y="0"
           sodipodi:role="line"
           id="tspan870">cat</tspan></text>
      <g
         id="g874">
        <path
           d="m 14.023,68.328 c 480,0 480,0 480,0"
           style="fill:none;stroke:#f10000;stroke-width:2.85;stroke-linecap:butt;stroke-linejoin:miter;stroke-miterlimit:4;stroke-dasharray:none;stroke-opacity:1"
           id="path876" />
      </g>
      <g
         id="g878">
        <path
           d="m 59.023,71.328 c 0,-60 0,-60 0,-60"
           style="fill:none;stroke:#000000;stroke-width:1.275;stroke-linecap:butt;stroke-linejoin:miter;stroke-miterlimit:4;stroke-dasharray:none;stroke-opacity:1"
           id="path880" />
      </g>
      <g
         id="g882"
         transform="rotate(90)">
        <path
           d="m 24.078,-59.023 5.102,-5.102 -17.852,5.102 17.852,5.097 z"
           style="fill:#000000;fill-opacity:1;fill-rule:evenodd;stroke:#000000;stroke-width:1.36;stroke-linecap:butt;stroke-linejoin:miter;stroke-miterlimit:4;stroke-dasharray:none;stroke-opacity:1"
           id="path884" />
      </g>
      <g
         id="g886">
        <path
           d="m 59.023,86.328 c 0,60 0,60 0,60"
           style="fill:none;stroke:#000000;stroke-width:1.275;stroke-linecap:butt;stroke-linejoin:miter;stroke-miterlimit:4;stroke-dasharray:none;stroke-opacity:1"
           id="path888" />
      </g>
      <g
         id="g890"
         transform="rotate(-90)">
        <path
           d="m -133.578,59.023 5.098,-5.097 -17.848,5.097 17.848,5.102 z"
           style="fill:#000000;fill-opacity:1;fill-rule:evenodd;stroke:#000000;stroke-width:1.36;stroke-linecap:butt;stroke-linejoin:miter;stroke-miterlimit:4;stroke-dasharray:none;stroke-opacity:1"
           id="path892" />
      </g>
      <text
         xml:space="preserve"
         transform="translate(-0.975586,26.329157)"
         style="font-variant:normal;font-weight:normal;font-size:18px;font-family:'DejaVu Sans';-inkscape-font-specification:DejaVuSans;writing-mode:lr-tb;fill:#000000;fill-opacity:1;fill-rule:nonzero;stroke:none"
         id="text906"><tspan
           x="0 11.394 20.754 31.823999"
           y="0"
           sodipodi:role="line"
           id="tspan894">user</tspan><tspan
           x="0 9.3599997 20.771999 31.788 41.669998"
           y="22.5"
           sodipodi:role="line"
           id="tspan896">space</tspan><tspan
           x="0 9.7740002 20.844 27.936001 39.330002 50.400002"
           y="75.000008"
           sodipodi:role="line"
           id="tspan898">kernel</tspan><tspan
           x="0 9.3599997 20.771999 31.788 41.669998"
           y="97.500008"
           sodipodi:role="line"
           id="tspan900">space</tspan><tspan
           x="229.5 238.86 249.498 258.858 265.914 276.98401"
           y="33.000011"
           sodipodi:role="line"
           id="tspan902">system</tspan><tspan
           x="229.5 239.382 250.39799 255.384"
           y="55.500011"
           sodipodi:role="line"
           id="tspan904">call</tspan></text>
      <g
         id="g908">
        <path
           d="m 194.023,33.828 c 52.5,52.5 7.5,90 7.5,90"
           style="fill:none;stroke:#000000;stroke-width:0.75;stroke-linecap:butt;stroke-linejoin:miter;stroke-miterlimit:4;stroke-dasharray:none;stroke-opacity:1"
           id="path910" />
      </g>
      <g
         id="g912"
         transform="matrix(1,-0.833333,0.833333,1,0,0)">
        <path
           d="m 64.191,174.746 -6.922,-2.545 6.923,-2.547 c -1.105,1.504 -1.099,3.56 -10e-4,5.092 z"
           style="fill:#000000;fill-opacity:1;fill-rule:evenodd;stroke:#000000;stroke-width:0.396114;stroke-linecap:butt;stroke-linejoin:round;stroke-miterlimit:4;stroke-dasharray:none;stroke-opacity:1"
           id="path914" />
      </g>
    </g>
  </g>
</svg>
