<?xml version="1.0" encoding="UTF-8" standalone="no"?>
<!-- Created with Inkscape (http://www.inkscape.org/) -->

<svg
   version="1.1"
   id="svg3008"
   width="658.69922"
   height="361.4454"
   viewBox="0 0 658.69922 361.4454"
   sodipodi:docname="switch.pdf"
   xmlns:inkscape="http://www.inkscape.org/namespaces/inkscape"
   xmlns:sodipodi="http://sodipodi.sourceforge.net/DTD/sodipodi-0.dtd"
   xmlns="http://www.w3.org/2000/svg"
   xmlns:svg="http://www.w3.org/2000/svg">
  <defs
     id="defs3012" />
  <sodipodi:namedview
     id="namedview3010"
     pagecolor="#ffffff"
     bordercolor="#666666"
     borderopacity="1.0"
     inkscape:showpageshadow="2"
     inkscape:pageopacity="0.0"
     inkscape:pagecheckerboard="0"
     inkscape:deskcolor="#d1d1d1" />
  <g
     id="g3014"
     inkscape:groupmode="layer"
     inkscape:label="switch13"
     transform="matrix(1.3333333,0,0,1.3333333,0,5.7028014e-6)">
    <g
       id="g3016">
      <text
         xml:space="preserve"
         transform="translate(224.02441,270.82916)"
         style="font-variant:normal;font-weight:normal;font-size:18px;font-family:'DejaVu Sans';-inkscape-font-specification:DejaVuSans;writing-mode:lr-tb;fill:#000000;fill-opacity:1;fill-rule:nonzero;stroke:none"
         id="text3020"><tspan
           x="0 10.926 21.996 29.087999 40.481998 51.551998"
           y="0"
           sodipodi:role="line"
           id="tspan3018">Kernel</tspan></text>
      <g
         id="g3022">
        <path
           d="m 89.023,90.828 h 345 v 135 h -345 z"
           style="fill:none;stroke:#000000;stroke-width:1.5;stroke-linecap:butt;stroke-linejoin:miter;stroke-miterlimit:4;stroke-dasharray:none;stroke-opacity:0.896552"
           id="path3024" />
      </g>
      <g
         id="g3026"
         transform="scale(0.818182,1)">
        <path
           d="m 264.64,30.828 c 0,16.57 -36.934,30 -82.5,30 -45.561,0 -82.5,-13.43 -82.5,-30 0,-16.566 36.939,-30 82.5,-30 45.566,0 82.5,13.434 82.5,30 z"
           style="fill:none;stroke:#000000;stroke-width:1.65831;stroke-linecap:butt;stroke-linejoin:miter;stroke-miterlimit:4;stroke-dasharray:none;stroke-opacity:0.896552"
           id="path3028" />
      </g>
      <text
         xml:space="preserve"
         transform="translate(126.52441,36.829156)"
         style="font-variant:normal;font-weight:normal;font-size:18px;font-family:'DejaVu Sans';-inkscape-font-specification:DejaVuSans;writing-mode:lr-tb;fill:#000000;fill-opacity:1;fill-rule:nonzero;stroke:none"
         id="text3032"><tspan
           x="0 9.3599997 20.754 31.823999 36.810001"
           y="0"
           sodipodi:role="line"
           id="tspan3030">shell</tspan></text>
      <g
         id="g3034"
         transform="scale(0.818182,1)">
        <path
           d="m 539.64,30.828 c 0,16.57 -36.934,30 -82.5,30 -45.561,0 -82.5,-13.43 -82.5,-30 0,-16.566 36.939,-30 82.5,-30 45.566,0 82.5,13.434 82.5,30 z"
           style="fill:none;stroke:#000000;stroke-width:1.65831;stroke-linecap:butt;stroke-linejoin:miter;stroke-miterlimit:4;stroke-dasharray:none;stroke-opacity:0.896552"
           id="path3036" />
      </g>
      <text
         xml:space="preserve"
         transform="translate(359.02441,38.329156)"
         style="font-variant:normal;font-weight:normal;font-size:18px;font-family:'DejaVu Sans';-inkscape-font-specification:DejaVuSans;writing-mode:lr-tb;fill:#000000;fill-opacity:1;fill-rule:nonzero;stroke:none"
         id="text3040"><tspan
           x="0 9.882 20.898001"
           y="0"
           sodipodi:role="line"
           id="tspan3038">cat</tspan></text>
      <g
         id="g3042">
        <path
           d="m 14.023,72.828 c 480,0 480,0 480,0"
           style="fill:none;stroke:#f10000;stroke-width:2.85;stroke-linecap:butt;stroke-linejoin:miter;stroke-miterlimit:4;stroke-dasharray:none;stroke-opacity:1"
           id="path3044" />
      </g>
      <text
         xml:space="preserve"
         transform="translate(-0.975586,15.829156)"
         style="font-variant:normal;font-weight:normal;font-size:18px;font-family:'DejaVu Sans';-inkscape-font-specification:DejaVuSans;writing-mode:lr-tb;fill:#000000;fill-opacity:1;fill-rule:nonzero;stroke:none"
         id="text3054"><tspan
           x="0 11.394 20.754 31.823999"
           y="0"
           sodipodi:role="line"
           id="tspan3046">user</tspan><tspan
           x="0 9.3599997 20.771999 31.788 41.669998"
           y="22.5"
           sodipodi:role="line"
           id="tspan3048">space</tspan><tspan
           x="0 9.8100004 20.879999 27.972 39.366001 50.436001"
           y="149.99998"
           sodipodi:role="line"
           id="tspan3050">kernel</tspan><tspan
           x="0 9.3599997 20.771999 31.788 41.669998"
           y="172.49998"
           sodipodi:role="line"
           id="tspan3052">space</tspan></text>
      <g
         id="g3056">
        <path
           d="m 134.023,105.828 h 30 v 75 h -30 z"
           style="fill:none;stroke:#000000;stroke-width:1.575;stroke-linecap:butt;stroke-linejoin:miter;stroke-miterlimit:4;stroke-dasharray:none;stroke-opacity:1"
           id="path3058" />
      </g>
      <text
         xml:space="preserve"
         transform="translate(123.96344,199.21931)"
         style="font-variant:normal;font-weight:normal;font-size:18px;font-family:'DejaVu Sans';-inkscape-font-specification:DejaVuSans;writing-mode:lr-tb;fill:#000000;fill-opacity:1;fill-rule:nonzero;stroke:none"
         id="text3064"><tspan
           x="0 10.422 19.782 26.837999 37.854 47.790001 58.212002"
           y="0"
           sodipodi:role="line"
           id="tspan3060">kstack </tspan><tspan
           x="0 9.3599997 20.754 31.823999 36.810001"
           y="22.5"
           sodipodi:role="line"
           id="tspan3062">shell</tspan></text>
      <g
         id="g3066">
        <path
           d="m 351.523,105.828 h 30 v 75 h -30 z"
           style="fill:none;stroke:#000000;stroke-width:1.575;stroke-linecap:butt;stroke-linejoin:miter;stroke-miterlimit:4;stroke-dasharray:none;stroke-opacity:1"
           id="path3068" />
      </g>
      <text
         xml:space="preserve"
         transform="translate(344.40138,198.43095)"
         style="font-variant:normal;font-weight:normal;font-size:18px;font-family:'DejaVu Sans';-inkscape-font-specification:DejaVuSans;writing-mode:lr-tb;fill:#000000;fill-opacity:1;fill-rule:nonzero;stroke:none"
         id="text3076"><tspan
           x="0 10.422 19.782 26.837999 37.854 47.790001 58.212002"
           y="0"
           sodipodi:role="line"
           id="tspan3070">kstack </tspan><tspan
           x="0 9.882 20.898001"
           y="22.5"
           sodipodi:role="line"
           id="tspan3072">cat</tspan><tspan
           x="-101.63283"
           y="-64.456917"
           id="tspan3074"> </tspan></text>
      <g
         id="g3078">
        <path
           d="m 248.023,105.828 h 30 v 75 h -30 z"
           style="fill:none;stroke:#000000;stroke-width:1.575;stroke-linecap:butt;stroke-linejoin:miter;stroke-miterlimit:4;stroke-dasharray:none;stroke-opacity:1"
           id="path3080" />
      </g>
      <text
         xml:space="preserve"
         transform="translate(235.61467,199.48861)"
         style="font-variant:normal;font-weight:normal;font-size:18px;font-family:'DejaVu Sans';-inkscape-font-specification:DejaVuSans;writing-mode:lr-tb;fill:#000000;fill-opacity:1;fill-rule:nonzero;stroke:none"
         id="text3086"><tspan
           x="0 10.422 19.782 26.837999 37.854 47.790001"
           y="0"
           sodipodi:role="line"
           id="tspan3082">kstack</tspan><tspan
           x="0 9.3599997 19.242001 30.636 41.706001 53.118 64.566002 69.552002 80.622002"
           y="22.5"
           sodipodi:role="line"
           id="tspan3084">scheduler</tspan></text>
      <g
         id="g3088">
        <path
           d="m 104.023,30.828 c -30,60 30,105 30,105"
           style="fill:none;stroke:#000000;stroke-width:1.5;stroke-linecap:butt;stroke-linejoin:miter;stroke-miterlimit:4;stroke-dasharray:none;stroke-opacity:1"
           id="path3090" />
      </g>
      <g
         id="g3092"
         transform="matrix(-1,-0.75,0.75,-1,0,0)">
        <path
           d="m -138.973,-22.599 4.8,-4.799 -16.8,4.799 16.799,4.8 z"
           style="fill:#000000;fill-opacity:1;fill-rule:evenodd;stroke:#000000;stroke-width:1.28;stroke-linecap:butt;stroke-linejoin:miter;stroke-miterlimit:4;stroke-dasharray:none;stroke-opacity:1"
           id="path3094" />
      </g>
      <g
         id="g3096">
        <path
           d="m 383.023,161.328 c 60,-45 15,-120 15,-120"
           style="fill:none;stroke:#000000;stroke-width:1.5;stroke-linecap:butt;stroke-linejoin:miter;stroke-miterlimit:4;stroke-dasharray:none;stroke-opacity:1"
           id="path3098" />
      </g>
      <g
         id="g3100"
         transform="matrix(0.6,1,-1,0.6,0,0)">
        <path
           d="m 218.851,-274.432 5.144,-5.143 -18.008,5.144 18.007,5.144 z"
           style="fill:#000000;fill-opacity:1;fill-rule:evenodd;stroke:#000000;stroke-width:1.37199;stroke-linecap:butt;stroke-linejoin:miter;stroke-miterlimit:4;stroke-dasharray:none;stroke-opacity:1"
           id="path3102" />
      </g>
      <text
         xml:space="preserve"
         transform="translate(59.024414,120.82916)"
         style="font-variant:normal;font-weight:normal;font-size:18px;font-family:'DejaVu Sans';-inkscape-font-specification:DejaVuSans;writing-mode:lr-tb;fill:#000000;fill-opacity:1;fill-rule:nonzero;stroke:none"
         id="text3108"><tspan
           x="0 9.3599997 20.375999 31.014"
           y="0"
           sodipodi:role="line"
           id="tspan3104">save</tspan><tspan
           x="360 367.01999 378.09 387.45001 394.50601 405.504 412.54199"
           y="14.999994"
           sodipodi:role="line"
           id="tspan3106">restore</tspan></text>
      <g
         id="g3110">
        <path
           d="m 179.023,150.828 c 50,0 60,0 60,0"
           style="fill:none;stroke:#000000;stroke-width:1.5;stroke-linecap:butt;stroke-linejoin:miter;stroke-miterlimit:4;stroke-dasharray:none;stroke-opacity:1"
           id="path3112" />
      </g>
      <g
         id="g3114"
         transform="scale(-1)">
        <path
           d="m -224.023,-150.828 6,-6 -21,6 21,6 z"
           style="fill:#000000;fill-opacity:1;fill-rule:evenodd;stroke:#000000;stroke-width:1.6;stroke-linecap:butt;stroke-linejoin:miter;stroke-miterlimit:4;stroke-dasharray:none;stroke-opacity:1"
           id="path3116" />
      </g>
      <g
         id="g3118">
        <path
           d="m 284.023,150.828 c 60,0 60,0 60,0"
           style="fill:none;stroke:#000000;stroke-width:1.5;stroke-linecap:butt;stroke-linejoin:miter;stroke-miterlimit:4;stroke-dasharray:none;stroke-opacity:1"
           id="path3120" />
      </g>
      <g
         id="g3122"
         transform="scale(-1)">
        <path
           d="m -329.023,-150.828 6,-6 -21,6 21,6 z"
           style="fill:#000000;fill-opacity:1;fill-rule:evenodd;stroke:#000000;stroke-width:1.6;stroke-linecap:butt;stroke-linejoin:miter;stroke-miterlimit:4;stroke-dasharray:none;stroke-opacity:1"
           id="path3124" />
      </g>
      <text
         xml:space="preserve"
         transform="translate(179.02441,141.82916)"
         style="font-variant:normal;font-weight:normal;font-size:18px;font-family:'DejaVu Sans';-inkscape-font-specification:DejaVuSans;writing-mode:lr-tb;fill:#000000;fill-opacity:1;fill-rule:nonzero;stroke:none"
         id="text3130"><tspan
           x="0 9.3599997 24.066 31.122 41.004002"
           y="0"
           sodipodi:role="line"
           id="tspan3126">swtch</tspan><tspan
           x="111.00001 120.36001 135.06601 142.12201 152.00401"
           y="-1.4999994"
           sodipodi:role="line"
           id="tspan3128">swtch</tspan></text>
    </g>
  </g>
</svg>
